<?xml version="1.0" standalone="no"?>
<!DOCTYPE svg PUBLIC "-//W3C//DTD SVG 20010904//EN"
 "http://www.w3.org/TR/2001/REC-SVG-20010904/DTD/svg10.dtd">
<svg version="1.0" xmlns="http://www.w3.org/2000/svg"
 width="512.000000pt" height="512.000000pt" viewBox="0 0 512.000000 512.000000"
 preserveAspectRatio="xMidYMid meet">
<metadata>
Created by potrace 1.14, written by Peter Selinger 2001-2017
</metadata>
<g transform="translate(0.000000,512.000000) scale(0.100000,-0.100000)"
fill="#000000" stroke="none">
<path d="M2459 5116 c-2 -2 -44 -6 -94 -10 -49 -3 -101 -8 -115 -10 -14 -2
-49 -7 -77 -11 -29 -3 -67 -10 -85 -15 -17 -6 -34 -8 -36 -5 -3 3 -11 0 -18
-5 -6 -6 -16 -10 -20 -8 -5 1 -34 -4 -64 -12 -30 -8 -58 -15 -62 -16 -5 -1 -9
-2 -10 -4 -2 -1 -10 -3 -18 -5 -37 -7 -243 -82 -323 -117 -127 -55 -271 -134
-397 -218 -109 -72 -159 -110 -250 -189 -93 -81 -258 -252 -310 -321 -14 -19
-36 -46 -49 -62 -38 -46 -107 -148 -147 -218 -21 -36 -41 -67 -45 -70 -24 -18
-199 -416 -214 -487 -2 -10 -9 -31 -15 -48 -7 -16 -14 -43 -17 -60 -2 -16 -10
-48 -18 -70 -7 -22 -15 -58 -19 -80 -7 -48 -15 -93 -21 -121 -14 -64 -19 -164
-19 -379 1 -232 3 -277 24 -395 5 -30 12 -71 15 -90 3 -19 11 -53 17 -75 5
-22 12 -51 15 -65 9 -54 103 -332 129 -382 8 -15 14 -30 14 -33 0 -20 179
-344 207 -373 7 -8 18 -23 25 -35 14 -26 140 -187 188 -240 88 -97 231 -234
300 -287 25 -19 46 -38 48 -42 2 -5 9 -8 15 -8 6 0 20 -9 31 -19 12 -11 59
-44 106 -75 47 -30 90 -59 95 -63 6 -5 33 -20 60 -34 28 -14 71 -38 97 -53 27
-15 48 -24 48 -21 0 4 13 -3 30 -15 16 -12 30 -18 30 -15 0 4 10 1 23 -7 12
-8 36 -20 52 -26 17 -6 68 -25 115 -42 47 -17 92 -33 100 -35 8 -2 35 -10 60
-19 25 -8 60 -18 79 -21 19 -3 38 -8 42 -11 5 -3 21 -7 36 -9 16 -3 61 -11
101 -19 176 -36 483 -51 652 -32 36 4 81 9 100 11 47 4 197 32 240 44 19 6 46
12 60 15 132 26 358 110 535 198 44 22 82 44 83 49 2 5 8 9 14 9 31 0 326 206
436 305 143 128 244 239 358 390 135 180 246 383 334 612 33 86 96 298 105
353 3 19 8 42 10 50 10 36 21 96 29 165 4 28 9 66 12 85 11 63 12 360 3 459
-17 177 -26 243 -40 296 -6 22 -13 51 -15 65 -3 14 -9 39 -15 56 -5 17 -12 42
-14 54 -22 116 -159 442 -243 580 -12 19 -29 50 -39 68 -9 17 -20 32 -25 32
-4 0 -8 6 -8 13 0 7 -8 22 -17 33 -10 10 -31 39 -48 64 -16 25 -32 47 -35 50
-3 3 -30 37 -60 75 -29 39 -78 93 -107 122 -29 28 -53 56 -53 62 0 6 -3 11 -7
11 -5 0 -43 33 -85 73 -128 119 -164 148 -331 260 -123 83 -346 200 -477 250
-76 30 -217 76 -250 82 -13 2 -38 9 -56 15 -18 6 -45 13 -61 16 -15 3 -48 10
-73 15 -62 14 -138 25 -245 34 -79 7 -322 15 -326 11z"/>
</g>
</svg>
